<?xml version="1.0" encoding="UTF-8" standalone="no"?>
<svg
   xmlns:dc="http://purl.org/dc/elements/1.1/"
   xmlns:cc="http://creativecommons.org/ns#"
   xmlns:rdf="http://www.w3.org/1999/02/22-rdf-syntax-ns#"
   xmlns:svg="http://www.w3.org/2000/svg"
   xmlns="http://www.w3.org/2000/svg"
   id="svg8"
   version="1.1"
   viewBox="0 0 79.374998 13.229167"
   height="50"
   width="300">
  <defs
     id="defs2" />
  <metadata
     id="metadata5">
    <rdf:RDF>
      <cc:Work
         rdf:about="">
        <dc:format>image/svg+xml</dc:format>
        <dc:type
           rdf:resource="http://purl.org/dc/dcmitype/StillImage" />
        <dc:title></dc:title>
      </cc:Work>
    </rdf:RDF>
  </metadata>
  <g
     transform="translate(0,-283.77082)"
     id="layer1">
    <circle
       r="0"
       cy="283.60312"
       cx="21.615425"
       id="path815-3"
       style="opacity:1;fill:#ffffff;fill-opacity:1;stroke:none;stroke-width:0.05;stroke-linejoin:round;stroke-miterlimit:4;stroke-dasharray:none;stroke-opacity:1" />
    <path
       id="path5034"
       d="m 8.854338,295.65755 c -0.021939,-0.0131 -0.2148633,-0.11192 -0.4287285,-0.21952 -0.2138664,-0.10759 -0.6430911,-0.32845 -0.9538334,-0.49078 l -0.5649854,-0.29517 11.9851423,-0.005 11.985145,-0.005 0.205362,0.15089 c 0.382502,0.28106 0.818911,0.54127 1.279668,0.763 l 0.261734,0.12595 -11.864811,-6.7e-4 c -9.740855,-5.5e-4 -11.8719509,-0.005 -11.904693,-0.0246 z"
       style="opacity:1;fill:#ffffff;fill-opacity:1;stroke:none;stroke-width:0.00072105;stroke-linecap:square;stroke-linejoin:miter;stroke-miterlimit:4;stroke-dasharray:none;stroke-dashoffset:0;stroke-opacity:1" />
    <path
       id="path5036"
       d="m 1.933305,292.83412 c -0.060416,-0.0353 -0.3273365,-0.18492 -0.5931602,-0.33238 -0.2658236,-0.14748 -0.65137756,-0.36437 -0.85678674,-0.482 l -0.37347115,-0.21387 14.36765409,2.4e-4 14.367655,2.4e-4 0.09564,0.19095 c 0.104071,0.20779 0.335491,0.58175 0.463975,0.74977 0.04445,0.0581 0.08806,0.1165 0.09692,0.1297 0.01287,0.0192 -2.737115,0.0238 -13.721239,0.0228 L 2.0431451,292.8987 Z"
       style="opacity:1;fill:#ffffff;fill-opacity:1;stroke:none;stroke-width:0.00077654;stroke-linecap:square;stroke-linejoin:miter;stroke-miterlimit:4;stroke-dasharray:none;stroke-dashoffset:0;stroke-opacity:1" />
    <path
       id="path5038"
       d="m 36.109201,295.64767 c -1.157166,-0.23721 -2.379931,-0.94178 -3.137602,-1.80791 -0.535541,-0.61221 -1.058298,-1.61987 -1.15541,-2.22717 -0.0821,-0.51343 -0.01625,-0.55314 1.051555,-0.63415 l 0.731944,-0.0555 0.244607,0.64119 c 0.625084,1.63858 2.203103,3.24913 3.769683,3.84741 0.438356,0.16742 0.454171,0.18589 0.216044,0.2523 -0.347148,0.0968 -1.20921,0.0887 -1.720821,-0.0161 z"
       style="opacity:1;fill:#ffffff;fill-opacity:1;stroke:none;stroke-width:0.00395199;stroke-linecap:square;stroke-linejoin:miter;stroke-miterlimit:4;stroke-dasharray:none;stroke-dashoffset:0;stroke-opacity:1" />
    <path
       id="path5040"
       d="m 37.115395,293.8479 c -1.201533,-0.77658 -2.058126,-1.8827 -2.576262,-3.32671 -0.355838,-0.9917 -0.393382,-2.66683 -0.08259,-3.68479 0.187705,-0.61482 0.214656,-0.64903 0.465141,-0.59047 0.349222,0.0817 1.439136,0.62036 1.755958,0.86796 l 0.249694,0.19513 -0.196455,0.6585 c -0.269636,0.90381 -0.269425,2.97487 4.25e-4,3.86281 0.193124,0.63557 0.602376,1.49669 0.994758,2.09313 0.121551,0.18477 0.17713,0.33595 0.123511,0.33595 -0.05362,0 -0.383987,-0.18518 -0.734153,-0.41151 z"
       style="opacity:1;fill:#ffffff;fill-opacity:1;stroke:none;stroke-width:0.00390669;stroke-linecap:square;stroke-linejoin:miter;stroke-miterlimit:4;stroke-dasharray:none;stroke-dashoffset:0;stroke-opacity:1" />
    <path
       id="path5042"
       d="m 39.0748,293.75382 c -1.002185,-1.23028 -1.437134,-2.47301 -1.437134,-4.10617 0,-1.68828 0.537,-3.14528 1.564118,-4.24381 l 0.552194,-0.59059 0.388812,0.37339 c 0.544028,0.52246 1.079791,1.3609 1.41248,2.21046 0.255087,0.6514 0.2839,0.86649 0.289801,2.16352 0.0057,1.23887 -0.02792,1.54001 -0.240063,2.15397 -0.384557,1.11297 -1.468583,2.64675 -1.870632,2.64675 -0.09058,0 -0.387394,-0.27338 -0.659576,-0.60752 z"
       style="opacity:1;fill:#ffffff;fill-opacity:1;stroke:none;stroke-width:0.0040321;stroke-linecap:square;stroke-linejoin:miter;stroke-miterlimit:4;stroke-dasharray:none;stroke-dashoffset:0;stroke-opacity:1" />
    <path
       id="path5044"
       d="m 41.694122,294.17418 c 0,-0.0219 0.16707,-0.31723 0.371265,-0.65633 0.204197,-0.3391 0.495915,-0.99459 0.648263,-1.45665 0.243108,-0.73733 0.276595,-1.0071 0.273742,-2.20526 -0.0026,-1.0872 -0.04731,-1.50038 -0.219616,-2.02926 l -0.216365,-0.66409 0.485087,-0.30763 c 0.2668,-0.1692 0.745643,-0.40512 1.064098,-0.52427 0.542799,-0.20309 0.587206,-0.20541 0.710085,-0.0374 0.07209,0.0986 0.210174,0.53478 0.306852,0.96933 0.19739,0.88723 0.153985,2.14426 -0.10251,2.96881 -0.281511,0.90499 -0.901381,1.97506 -1.538858,2.65653 -0.684038,0.73123 -1.782043,1.52373 -1.782043,1.28619 z"
       style="opacity:1;fill:#ffffff;fill-opacity:1;stroke:none;stroke-width:0.00396897;stroke-linecap:square;stroke-linejoin:miter;stroke-miterlimit:4;stroke-dasharray:none;stroke-dashoffset:0;stroke-opacity:1" />
    <path
       id="path5046"
       d="m 41.672259,295.68037 c -0.271389,-0.0404 -0.216852,-0.0859 0.5528,-0.46037 1.448709,-0.70495 2.759827,-2.12646 3.363779,-3.64699 l 0.247877,-0.62406 h 0.504222 c 0.277321,0 0.715549,0.0531 0.97384,0.11825 0.455111,0.1146 0.467448,0.12832 0.399375,0.44418 -0.574133,2.66393 -3.338963,4.5717 -6.041893,4.16899 z"
       style="opacity:1;fill:#ffffff;fill-opacity:1;stroke:none;stroke-width:0.00395009;stroke-linecap:square;stroke-linejoin:miter;stroke-miterlimit:4;stroke-dasharray:none;stroke-dashoffset:0;stroke-opacity:1" />
    <path
       style="opacity:1;fill:#ffffff;fill-opacity:1;stroke:none;stroke-width:0.00074021;stroke-linecap:square;stroke-linejoin:miter;stroke-miterlimit:4;stroke-dasharray:none;stroke-dashoffset:0;stroke-opacity:1"
       d="m 70.571138,295.68288 c 0.02199,-0.0139 0.215192,-0.11777 0.429382,-0.23099 0.214192,-0.11322 0.644064,-0.34561 0.955274,-0.51642 l 0.565845,-0.31059 -12.003297,-0.005 -12.003295,-0.005 -0.205674,0.15877 c -0.38308,0.29575 -0.82015,0.56956 -1.281605,0.80287 l -0.262131,0.13253 11.88278,-7.1e-4 c 9.755605,-5.8e-4 11.88993,-0.005 11.922721,-0.0258 z"
       id="path5096" />
    <path
       style="opacity:1;fill:#ffffff;fill-opacity:1;stroke:none;stroke-width:0.00077701;stroke-linecap:square;stroke-linejoin:miter;stroke-miterlimit:4;stroke-dasharray:none;stroke-dashoffset:0;stroke-opacity:1"
       d="m 77.507742,292.83446 c 0.06054,-0.0352 0.327889,-0.18483 0.594164,-0.33222 0.266264,-0.1474 0.652471,-0.36418 0.858222,-0.48175 l 0.374098,-0.21377 -14.391797,2.5e-4 -14.391796,2.4e-4 -0.09581,0.19084 c -0.104243,0.20769 -0.336056,0.58146 -0.464757,0.7494 -0.04453,0.0581 -0.0882,0.11644 -0.09708,0.12963 -0.01289,0.0192 2.741714,0.0238 13.744294,0.0228 l 13.760429,-8.7e-4 z"
       id="path5098" />
  </g>
</svg>
