<?xml version="1.0" encoding="UTF-8" standalone="no"?>
<!-- Created with Inkscape (http://www.inkscape.org/) -->

<svg
   xmlns:dc="http://purl.org/dc/elements/1.1/"
   xmlns:cc="http://creativecommons.org/ns#"
   xmlns:rdf="http://www.w3.org/1999/02/22-rdf-syntax-ns#"
   xmlns:svg="http://www.w3.org/2000/svg"
   xmlns="http://www.w3.org/2000/svg"
   xmlns:sodipodi="http://sodipodi.sourceforge.net/DTD/sodipodi-0.dtd"
   xmlns:inkscape="http://www.inkscape.org/namespaces/inkscape"
   width="300"
   height="50"
   viewBox="0 0 79.374998 13.229167"
   version="1.1"
   id="svg8"
   inkscape:version="0.92.3 (2405546, 2018-03-11)"
   sodipodi:docname="lotus-logo.svg">
  <defs
     id="defs2" />
  <sodipodi:namedview
     id="base"
     pagecolor="#ffffff"
     bordercolor="#666666"
     borderopacity="1.0"
     inkscape:pageopacity="0.0"
     inkscape:pageshadow="2"
     inkscape:zoom="1.4448549"
     inkscape:cx="168.41034"
     inkscape:cy="54.284805"
     inkscape:document-units="mm"
     inkscape:current-layer="layer1"
     showgrid="false"
     units="px"
     inkscape:window-width="1920"
     inkscape:window-height="971"
     inkscape:window-x="0"
     inkscape:window-y="47"
     inkscape:window-maximized="1"
     inkscape:lockguides="false"
     showguides="false"
     inkscape:guide-bbox="true"
     inkscape:snap-text-baseline="false">
    <sodipodi:guide
       position="3.469447e-18,11.41844"
       orientation="1,0"
       inkscape:locked="false"
       id="guide4795" />
    <sodipodi:guide
       position="79.375,26.505876"
       orientation="1,0"
       id="guide4799"
       inkscape:locked="false" />
    <sodipodi:guide
       position="3.4694469e-18,12.219588"
       orientation="0,1"
       id="guide4961"
       inkscape:locked="false" />
    <sodipodi:guide
       position="7.3586864,7.7677446"
       orientation="0,1"
       id="guide4963"
       inkscape:locked="false" />
  </sodipodi:namedview>
  <metadata
     id="metadata5">
    <rdf:RDF>
      <cc:Work
         rdf:about="">
        <dc:format>image/svg+xml</dc:format>
        <dc:type
           rdf:resource="http://purl.org/dc/dcmitype/StillImage" />
        <dc:title></dc:title>
      </cc:Work>
    </rdf:RDF>
  </metadata>
  <g
     inkscape:label="レイヤー 1"
     inkscape:groupmode="layer"
     id="layer1"
     transform="translate(0,-283.77082)">
    <circle
       style="opacity:1;fill:#ffffff;fill-opacity:1;stroke:none;stroke-width:0.05;stroke-linejoin:round;stroke-miterlimit:4;stroke-dasharray:none;stroke-opacity:1"
       id="path815-3"
       cx="21.580868"
       cy="283.71484"
       r="0" />
    <path
       style="opacity:1;fill:#ffffff;fill-opacity:1;stroke:none;stroke-width:0.00074794;stroke-linecap:square;stroke-linejoin:miter;stroke-miterlimit:4;stroke-dasharray:none;stroke-dashoffset:0;stroke-opacity:1"
       d="m 9.8024572,295.761 c -0.020338,-0.0152 -0.1991878,-0.1299 -0.3974503,-0.25479 -0.1982636,-0.12488 -0.5961738,-0.38123 -0.8842457,-0.56965 l -0.5237665,-0.3426 11.1107573,-0.006 11.11076,-0.006 0.190379,0.17514 c 0.354597,0.32622 0.759167,0.62825 1.186309,0.88561 l 0.242639,0.14619 -10.999204,-7.8e-4 c -9.030204,-6.4e-4 -11.0058244,-0.006 -11.0361778,-0.0285 z"
       id="path5034"
       inkscape:connector-curvature="0" />
    <path
       style="opacity:1;fill:#ffffff;fill-opacity:1;stroke:none;stroke-width:0.00082689;stroke-linecap:square;stroke-linejoin:miter;stroke-miterlimit:4;stroke-dasharray:none;stroke-dashoffset:0;stroke-opacity:1"
       d="m 1.8566065,292.7734 c -0.05902,-0.041 -0.3197712,-0.21464 -0.5794513,-0.3858 -0.25968,-0.17119 -0.63632322,-0.42294 -0.83698508,-0.55948 l -0.36483967,-0.24824 14.03559655,2.8e-4 14.035596,2.8e-4 0.09343,0.22164 c 0.101665,0.24119 0.327737,0.67525 0.453252,0.87028 0.04342,0.0674 0.08602,0.13522 0.09468,0.15054 0.01257,0.0223 -2.673856,0.0276 -13.40412,0.0265 l -13.419857,-10e-4 z"
       id="path5036"
       inkscape:connector-curvature="0" />
    <path
       style="opacity:1;fill:#ffffff;fill-opacity:1;stroke:none;stroke-width:0.00379237;stroke-linecap:square;stroke-linejoin:miter;stroke-miterlimit:4;stroke-dasharray:none;stroke-dashoffset:0;stroke-opacity:1"
       d="m 36.025288,295.66568 c -1.110427,-0.22763 -2.283803,-0.90374 -3.010871,-1.73489 -0.51391,-0.58748 -1.015552,-1.55444 -1.108742,-2.13721 -0.07878,-0.49269 -0.01559,-0.5308 1.009082,-0.60854 l 0.70238,-0.0533 0.234727,0.6153 c 0.599836,1.57239 2.114118,3.11789 3.617422,3.69201 0.42065,0.16065 0.435826,0.17838 0.207317,0.2421 -0.333126,0.0929 -1.160368,0.0851 -1.651315,-0.0154 z"
       id="path5038"
       inkscape:connector-curvature="0" />
    <path
       style="opacity:1;fill:#ffffff;fill-opacity:1;stroke:none;stroke-width:0.00379649;stroke-linecap:square;stroke-linejoin:miter;stroke-miterlimit:4;stroke-dasharray:none;stroke-dashoffset:0;stroke-opacity:1"
       d="m 37.051011,293.85794 c -1.167641,-0.75468 -2.000073,-1.8296 -2.503594,-3.23288 -0.345801,-0.96372 -0.382286,-2.5916 -0.08026,-3.58086 0.182411,-0.59747 0.208602,-0.63071 0.452022,-0.5738 0.339371,0.0794 1.398543,0.60286 1.706428,0.84347 l 0.24265,0.18963 -0.190913,0.63992 c -0.262031,0.87831 -0.261825,2.89096 4.13e-4,3.75386 0.187677,0.61764 0.585385,1.45447 0.966699,2.03408 0.118123,0.17957 0.172134,0.32648 0.120028,0.32648 -0.05211,0 -0.373157,-0.17996 -0.713446,-0.3999 z"
       id="path5040"
       inkscape:connector-curvature="0" />
    <path
       style="opacity:1;fill:#ffffff;fill-opacity:1;stroke:none;stroke-width:0.00392274;stroke-linecap:square;stroke-linejoin:miter;stroke-miterlimit:4;stroke-dasharray:none;stroke-dashoffset:0;stroke-opacity:1"
       d="m 39.058331,293.75254 c -0.975003,-1.19691 -1.398155,-2.40593 -1.398155,-3.9948 0,-1.64249 0.522435,-3.05997 1.521695,-4.1287 l 0.537217,-0.57457 0.378266,0.36326 c 0.529272,0.50829 1.050504,1.32399 1.374169,2.1505 0.248169,0.63374 0.2762,0.84299 0.281941,2.10484 0.0055,1.20527 -0.02716,1.49824 -0.233552,2.09555 -0.374126,1.08278 -1.42875,2.57496 -1.819895,2.57496 -0.08812,0 -0.376886,-0.26596 -0.641686,-0.59104 z"
       id="path5042"
       inkscape:connector-curvature="0" />
    <path
       style="opacity:1;fill:#ffffff;fill-opacity:1;stroke:none;stroke-width:0.0038412;stroke-linecap:square;stroke-linejoin:miter;stroke-miterlimit:4;stroke-dasharray:none;stroke-dashoffset:0;stroke-opacity:1"
       d="m 41.716654,294.1578 c 0,-0.0212 0.161692,-0.30701 0.359313,-0.6352 0.197624,-0.32818 0.479951,-0.96257 0.627395,-1.40975 0.235282,-0.7136 0.267691,-0.97468 0.264929,-2.13427 -0.0025,-1.0522 -0.04579,-1.45208 -0.212546,-1.96394 l -0.2094,-0.64271 0.469472,-0.29773 c 0.258211,-0.16375 0.721639,-0.39207 1.029842,-0.50739 0.525326,-0.19655 0.568303,-0.1988 0.687226,-0.0362 0.06977,0.0954 0.203408,0.51756 0.296974,0.93812 0.191036,0.85867 0.149028,2.07523 -0.09921,2.87324 -0.272448,0.87586 -0.872364,1.91148 -1.489319,2.57101 -0.662018,0.70769 -1.724676,1.47468 -1.724676,1.24479 z"
       id="path5044"
       inkscape:connector-curvature="0" />
    <path
       style="opacity:1;fill:#ffffff;fill-opacity:1;stroke:none;stroke-width:0.00381648;stroke-linecap:square;stroke-linejoin:miter;stroke-miterlimit:4;stroke-dasharray:none;stroke-dashoffset:0;stroke-opacity:1"
       d="m 41.737889,295.71299 c -0.262209,-0.039 -0.209516,-0.083 0.534102,-0.4448 1.399706,-0.6811 2.666476,-2.05453 3.249999,-3.52363 l 0.239492,-0.60295 h 0.487167 c 0.267941,0 0.691346,0.0513 0.9409,0.11425 0.439717,0.11072 0.451636,0.12398 0.385866,0.42915 -0.554713,2.57383 -3.226022,4.41707 -5.837526,4.02798 z"
       id="path5046"
       inkscape:connector-curvature="0" />
    <path
       inkscape:connector-curvature="0"
       id="path5096"
       d="m 69.565206,295.7904 c 0.02036,-0.0161 0.199241,-0.13669 0.397555,-0.2681 0.198316,-0.13142 0.596327,-0.40115 0.884469,-0.59941 l 0.523904,-0.3605 -11.113605,-0.006 -11.113603,-0.006 -0.190429,0.18428 c -0.354686,0.34328 -0.75936,0.66109 -1.186612,0.93189 l -0.242702,0.15383 11.002021,-8.2e-4 c 9.032514,-6.8e-4 11.008641,-0.006 11.039002,-0.03 z"
       style="opacity:1;fill:#ffffff;fill-opacity:1;stroke:none;stroke-width:0.00076735;stroke-linecap:square;stroke-linejoin:miter;stroke-miterlimit:4;stroke-dasharray:none;stroke-dashoffset:0;stroke-opacity:1" />
    <path
       inkscape:connector-curvature="0"
       id="path5098"
       d="m 77.517664,292.77379 c 0.05907,-0.0408 0.319904,-0.21453 0.579695,-0.38561 0.25978,-0.1711 0.636583,-0.42272 0.837323,-0.55919 l 0.364988,-0.24813 -14.041331,2.9e-4 -14.041331,2.8e-4 -0.09348,0.22152 c -0.101704,0.24107 -0.327872,0.67492 -0.453439,0.86985 -0.04345,0.0674 -0.08605,0.13515 -0.09472,0.15046 -0.01258,0.0223 2.674948,0.0276 13.409596,0.0265 l 13.425337,-10e-4 z"
       style="opacity:1;fill:#ffffff;fill-opacity:1;stroke:none;stroke-width:0.00082687;stroke-linecap:square;stroke-linejoin:miter;stroke-miterlimit:4;stroke-dasharray:none;stroke-dashoffset:0;stroke-opacity:1" />
  </g>
</svg>
